<?xml version="1.0" encoding="utf-8"?>
<!-- Generator: Adobe Illustrator 16.0.0, SVG Export Plug-In . SVG Version: 6.00 Build 0)  -->
<!DOCTYPE svg PUBLIC "-//W3C//DTD SVG 1.1//EN" "http://www.w3.org/Graphics/SVG/1.1/DTD/svg11.dtd">
<svg version="1.1" id="Layer_1" xmlns="http://www.w3.org/2000/svg" xmlns:xlink="http://www.w3.org/1999/xlink" x="0px" y="0px"
	 width="300px" height="280px" viewBox="0 0 300 280" style="enable-background:new 0 0 300 280;" xml:space="preserve">
<style type="text/css">
<![CDATA[
	.st0{clip-path:url(#SVGID_2_);fill-rule:evenodd;clip-rule:evenodd;fill:#ED1C24;}
	.st1{clip-path:url(#SVGID_2_);fill-rule:evenodd;clip-rule:evenodd;}
	.st2{clip-path:url(#SVGID_2_);fill-rule:evenodd;clip-rule:evenodd;fill:#C51A20;}
]]>
</style>
<g>
	<defs>
		<rect id="SVGID_1_" width="300" height="280"/>
	</defs>
	<clipPath id="SVGID_2_">
		<use xlink:href="#SVGID_1_"  style="overflow:visible;"/>
	</clipPath>
	<path class="st1" d="M79.4,123.7c6.8,0,13.4,1,18.2,2.1v16.1c-5.3-1.9-11.5-3.3-18.9-3.3c-12.2,0-18.1,6.8-18.1,16.5
		c0,9.3,5,15.5,16.3,15.5c1.4,0,3.3-0.2,4.3-0.5v-18.2h17.2v29.6c-6.4,2.6-14.3,4.2-23.4,4.2c-22.5,0-33-11.5-33-29.4
		C42,136.2,53.9,123.7,79.4,123.7"/>
	<polygon class="st1" points="224,184.6 203.7,153.5 222.9,124.7 201.9,124.7 186.9,150.3 186.9,124.7 169.4,124.7 169.4,184.6 
		186.9,184.6 186.9,157.3 201.6,184.6 	"/>
	<path class="st1" d="M123.4,184.6l-22.7-60h19l10.5,30c1.1,3.2,2.5,7.4,3.2,10.7h0.1c0.8-3.3,2.1-7.5,3.2-10.7l10.5-30h19l-22.7,60
		H123.4z"/>
	<path class="st0" d="M257.1,96.5c0,0-22-7.5-65.2,5.4v1.2c14.9,0.5,28.4,7.1,38.2,17.2l27.1-23.5C257.1,96.7,257.1,96.6,257.1,96.5
		"/>
	<path class="st2" d="M245,158.6h1.2c3.5-8.3,11.8-30.2,11.8-50.7v-0.5c0-3.7-0.3-7.4-0.9-11l-27,23.8c9.3,9.6,15,22.4,15,36.3
		C245,157.3,245,158,245,158.6"/>
</g>
</svg>
